# xmcd
#
# Track frame offsets:
#	150
#	21027
#	37752
#	57725
#	71397
#	92512
#	116972
#	129630
#	153330
#	169342
#	187707
#	208442
#
# Disc length: 3131 seconds
# Revision: 2
# Processed by: cddbd v1.5.2PL0 Copyright (c) Steve Scherf et al.
# Submitted via: dBpowerAMP V12.0
#
DISCID=a40c390c
DTITLE=Dave Stamey - If I Had a Horse
DYEAR=2007
DGENRE=Country
TTITLE0=If I Had a Horse
TTITLE1=Somewhere West of Laramie
TTITLE2=Campfire Waltz
TTITLE3=Talkin' Bronc Ballet Blues
TTITLE4=The Bandit Joaquin
TTITLE5=Montana Summers
TTITLE6=Cowboy Moon
TTITLE7=The Skies of Lincoln County
TTITLE8=My Journey Back to You
TTITLE9=Spin That Pony
TTITLE10=A Pan Full of Dust
TTITLE11=The Trail Took Me Away
EXTD=
EXTT0=
EXTT1=
EXTT2=
EXTT3=
EXTT4=
EXTT5=
EXTT6=
EXTT7=
EXTT8=
EXTT9=
EXTT10=
EXTT11=
PLAYORDER=
